<svg xmlns="http://www.w3.org/2000/svg" version="1.1" xmlns:xlink="http://www.w3.org/1999/xlink" xmlns:svgjs="http://svgjs.com/svgjs" width="512" height="512" x="0" y="0" viewBox="0 0 24 24" style="enable-background:new 0 0 512 512" xml:space="preserve" class=""><g><g xmlns="http://www.w3.org/2000/svg" id="Layer_2" data-name="Layer 2"><path d="m20.125 1h-16.25a2.878 2.878 0 0 0 -2.875 2.874v16.252a2.878 2.878 0 0 0 2.875 2.874h16.25a2.878 2.878 0 0 0 2.875-2.874v-16.252a2.878 2.878 0 0 0 -2.875-2.874zm.875 19.126a.876.876 0 0 1 -.875.874h-16.25a.876.876 0 0 1 -.875-.874v-16.252a.876.876 0 0 1 .875-.874h16.25a.876.876 0 0 1 .875.874z" fill="#000000" data-original="#000000" class=""></path><path d="m12 6a1 1 0 0 0 -1 1v10a1 1 0 0 0 2 0v-10a1 1 0 0 0 -1-1z" fill="#000000" data-original="#000000" class=""></path><path d="m7 11a1 1 0 0 0 -1 1v5a1 1 0 0 0 2 0v-5a1 1 0 0 0 -1-1z" fill="#000000" data-original="#000000" class=""></path><path d="m17 11a1 1 0 0 0 -1 1v5a1 1 0 0 0 2 0v-5a1 1 0 0 0 -1-1z" fill="#000000" data-original="#000000" class=""></path></g></g></svg>