<?xml version="1.0" ?><svg data-name="Layer 22" id="Layer_22" viewBox="0 0 50 50" xmlns="http://www.w3.org/2000/svg"><defs><style>.cls-1{fill:#010101;}</style></defs><title/><path class="cls-1" d="M25,2A23,23,0,1,0,48,25,23,23,0,0,0,25,2Zm0,42A19,19,0,1,1,44,25,19,19,0,0,1,25,44Z"/><path class="cls-1" d="M35.2,12.2L20,19h0l-0.4.3-0.2.2-0.2.2L19,20h0L12.2,35.2A2,2,0,0,0,14,38l0.8-.2L30,31h0l0.4-.2,0.3-.3h0L31,30l6.8-15.2A2,2,0,0,0,35.2,12.2ZM18,32l3.5-7.7,4.2,4.2Zm10.5-6.3-4.2-4.2L32,18Z"/></svg>