<svg id="Capa_1" enable-background="new 0 0 512 512" height="512" viewBox="0 0 512 512" width="512" xmlns="http://www.w3.org/2000/svg"><g><g><path d="m60 316c33.084 0 60-26.916 60-60s-26.916-60-60-60-60 26.916-60 60 26.916 60 60 60zm0-80c11.028 0 20 8.972 20 20s-8.972 20-20 20-20-8.972-20-20 8.972-20 20-20zm392-40c-33.084 0-60 26.916-60 60s26.916 60 60 60 60-26.916 60-60-26.916-60-60-60zm0 80c-11.028 0-20-8.972-20-20s8.972-20 20-20 20 8.972 20 20-8.972 20-20 20zm0 116c-26.073 0-48.303 16.722-56.56 40h-82.881c-8.256-23.278-30.487-40-56.559-40-26.073 0-48.303 16.722-56.56 40h-82.88c-.709-2-1.514-3.955-2.423-5.852l116.011-116.011c7.833 3.755 16.601 5.863 25.852 5.863 33.083 0 60-26.916 60-60 0-9.251-2.108-18.018-5.863-25.851l116.011-116.012c7.833 3.756 16.6 5.863 25.852 5.863 33.084 0 60-26.916 60-60s-26.916-60-60-60c-26.073 0-48.303 16.722-56.56 40h-82.881c-8.256-23.278-30.486-40-56.559-40s-48.303 16.722-56.56 40h-82.88c-8.256-23.278-30.487-40-56.56-40-33.084 0-60 26.916-60 60s26.916 60 60 60c26.073 0 48.303-16.722 56.56-40h82.881c8.256 23.278 30.487 40 56.56 40 26.072 0 48.303-16.722 56.559-40h82.881c.709 2 1.514 3.955 2.423 5.852l-116.011 116.012c-7.834-3.756-16.601-5.864-25.853-5.864-33.084 0-60 26.916-60 60 0 9.252 2.108 18.019 5.864 25.852l-116.011 116.012c-7.834-3.756-16.601-5.864-25.853-5.864-33.084 0-60 26.916-60 60s26.916 60 60 60c26.073 0 48.303-16.722 56.56-40h82.881c8.256 23.278 30.487 40 56.56 40 26.072 0 48.303-16.722 56.559-40h82.881c8.256 23.278 30.487 40 56.56 40 33.084 0 60-26.916 60-60s-26.917-60-60.001-60zm0-352c11.028 0 20 8.972 20 20s-8.972 20-20 20-20-8.972-20-20 8.971-20 20-20zm-392 40c-11.028 0-20-8.972-20-20s8.972-20 20-20 20 8.972 20 20-8.972 20-20 20zm196 0c-11.028 0-20-8.972-20-20s8.972-20 20-20 20 8.972 20 20-8.972 20-20 20zm0 156c11.028 0 20 8.972 20 20s-8.972 20-20 20-20-8.972-20-20 8.972-20 20-20zm-196 236c-11.028 0-20-8.972-20-20s8.972-20 20-20 20 8.972 20 20-8.972 20-20 20zm196 0c-11.028 0-20-8.972-20-20s8.972-20 20-20 20 8.972 20 20-8.972 20-20 20zm196 0c-11.028 0-20-8.972-20-20s8.972-20 20-20 20 8.972 20 20-8.972 20-20 20z"/></g></g></svg>