<svg xmlns="http://www.w3.org/2000/svg" version="1.1" xmlns:xlink="http://www.w3.org/1999/xlink" xmlns:svgjs="http://svgjs.com/svgjs" width="512" height="512" x="0" y="0" viewBox="0 0 24 24" style="enable-background:new 0 0 512 512" xml:space="preserve" class=""><g><path xmlns="http://www.w3.org/2000/svg" d="M19.673,1H4.327A3.331,3.331,0,0,0,1,4.327V19.673A3.331,3.331,0,0,0,4.327,23H19.673A3.331,3.331,0,0,0,23,19.673V18a1,1,0,0,0-2,0v1.673A1.329,1.329,0,0,1,19.673,21H4.327A1.329,1.329,0,0,1,3,19.673V4.327A1.329,1.329,0,0,1,4.327,3H19.673A1.329,1.329,0,0,1,21,4.327V6a1,1,0,0,0,2,0V4.327A3.331,3.331,0,0,0,19.673,1Z" fill="#000000" data-original="#000000"></path><path xmlns="http://www.w3.org/2000/svg" d="M23,12a1,1,0,0,0-1-1H11.414l3.293-3.293a1,1,0,1,0-1.414-1.414l-5,5a1,1,0,0,0,0,1.414l5,5a1,1,0,0,0,1.414-1.414L11.414,13H22A1,1,0,0,0,23,12Z" fill="#000000" data-original="#000000"></path></g></svg>