<?xml version="1.0"?>
<svg xmlns="http://www.w3.org/2000/svg" xmlns:xlink="http://www.w3.org/1999/xlink" xmlns:svgjs="http://svgjs.com/svgjs" version="1.1" width="512" height="512" x="0" y="0" viewBox="0 0 512 512" style="enable-background:new 0 0 512 512" xml:space="preserve" class=""><g><g xmlns="http://www.w3.org/2000/svg"><g><path d="m326.365 399.885h-59.13l-10.001 56.058 10.001 56.057h59.13z" fill="#282828" data-original="#2d2d2d" style="" class=""/><path d="m208.105 399.885h59.13v112.115h-59.13z" fill="#464646" data-original="#464646" style="" class=""/></g><g><path d="m474.703 192.993c0-65.613-53.38-118.993-118.993-118.993h-88.475l-10.001 180 10.001 160.838h207.468z" fill="#ff9900" data-original="#fd6717" style="" class=""/><path d="m137.701 74 100.404 340.838h29.13v-340.838z" fill="#f7cc46" data-original="#fd8c02" style="" class=""/></g><path d="m223.104 174.403v225.434h-170.806v-225.434c0-47.167 38.236-85.403 85.403-85.403 47.167 0 85.403 38.236 85.403 85.403z" fill="#fffbf5" data-original="#fffbf5" style="" class=""/><path d="m238.105 414.838h-200.808v-240.435c0-55.362 45.041-100.403 100.404-100.403s100.404 45.041 100.404 100.403zm-170.808-30h140.807v-210.435c0-38.821-31.583-70.403-70.403-70.403-38.821 0-70.404 31.583-70.404 70.403z" fill="#d7d7d7" data-original="#d7d7d7" style="" class=""/><path d="m101.701 317h72v30h-72z" fill="#9b9b9b" data-original="#9b9b9b" style="" class=""/><path d="m101.701 254h72v30h-72z" fill="#9b9b9b" data-original="#9b9b9b" style="" class=""/><g><path d="m356.403 225.784h-30v-225.784h71.597v30h-41.597z" fill="#282828" data-original="#2d2d2d" style="" class=""/><ellipse cx="341.403" cy="237.182" fill="#282828" rx="39.081" ry="39.081" transform="matrix(.924 -.383 .383 .924 -64.778 148.704)" data-original="#2d2d2d" style="" class=""/><path d="m341.403 291.264c-29.82 0-54.081-24.261-54.081-54.081s24.261-54.081 54.081-54.081 54.081 24.261 54.081 54.081-24.26 54.081-54.081 54.081zm0-78.163c-13.278 0-24.081 10.803-24.081 24.081 0 13.279 10.803 24.081 24.081 24.081s24.081-10.803 24.081-24.081-10.802-24.081-24.081-24.081z" fill="#5a5a5a" data-original="#5a5a5a" style=""/></g></g></g></svg>
