<svg xmlns="http://www.w3.org/2000/svg" version="1.1" xmlns:xlink="http://www.w3.org/1999/xlink" xmlns:svgjs="http://svgjs.com/svgjs" width="512" height="512" x="0" y="0" viewBox="0 0 24 24" style="enable-background:new 0 0 512 512" xml:space="preserve" class=""><g><path xmlns="http://www.w3.org/2000/svg" d="m20.154 8h-3.934l.329-1.647a5.1 5.1 0 0 0 -1.4-4.615 2.474 2.474 0 0 0 -3.961.643l-2.083 4.172a5.725 5.725 0 0 1 -1.389 1.753.99.99 0 0 0 -.716-.306h-5a1 1 0 0 0 -1 1v13a1 1 0 0 0 1 1h5a1 1 0 0 0 .927-.637l1.757.585a1 1 0 0 0 .316.052h7.378a4.265 4.265 0 0 0 3.395-1.7 11.2 11.2 0 0 0 2.227-6.678v-3.776a2.848 2.848 0 0 0 -2.846-2.846zm-14.154 13h-3v-11h3zm15-6.378a9.186 9.186 0 0 1 -1.826 5.48 2.258 2.258 0 0 1 -1.8.9h-7.212l-2.162-.722v-9.721a7.753 7.753 0 0 0 2.9-3.112l2.08-4.172a.474.474 0 0 1 .758-.123 3.1 3.1 0 0 1 .85 2.808l-.568 2.84a1 1 0 0 0 .98 1.2h5.154a.846.846 0 0 1 .846.846z" fill="#000000" data-original="#000000" class=""></path></g></svg>