<svg xmlns="http://www.w3.org/2000/svg" version="1.1" xmlns:xlink="http://www.w3.org/1999/xlink" xmlns:svgjs="http://svgjs.com/svgjs" width="512" height="512" x="0" y="0" viewBox="0 0 24 24" style="enable-background:new 0 0 512 512" xml:space="preserve" class=""><g><g xmlns="http://www.w3.org/2000/svg" id="Layer_2" data-name="Layer 2"><path d="M19.491,1H4.509A3.513,3.513,0,0,0,1,4.509V14a1,1,0,0,0,.293.707l8,8A1,1,0,0,0,10,23h9.491A3.513,3.513,0,0,0,23,19.491V4.509A3.513,3.513,0,0,0,19.491,1ZM3.414,14H10v6.586ZM21,19.491A1.511,1.511,0,0,1,19.491,21H12V13a1,1,0,0,0-1-1H3V4.509A1.511,1.511,0,0,1,4.509,3H19.491A1.511,1.511,0,0,1,21,4.509Z" fill="#000000" data-original="#000000"></path></g></g></svg>