<svg xmlns="http://www.w3.org/2000/svg" version="1.1" xmlns:xlink="http://www.w3.org/1999/xlink" xmlns:svgjs="http://svgjs.com/svgjs" width="512" height="512" x="0" y="0" viewBox="0 0 24 24" style="enable-background:new 0 0 512 512" xml:space="preserve" class=""><g><g xmlns="http://www.w3.org/2000/svg" id="Layer_2" data-name="Layer 2"><path d="m12 15a7 7 0 1 0 -7-7 7.008 7.008 0 0 0 7 7zm0-12a5 5 0 1 1 -5 5 5.006 5.006 0 0 1 5-5z" fill="#000000" data-original="#000000" class=""></path><path d="m22.753 19.672a10.955 10.955 0 0 0 -3.053-5.527 1 1 0 1 0 -1.4 1.427 8.977 8.977 0 0 1 2.5 4.522.725.725 0 0 1 -.151.617.767.767 0 0 1 -.6.289h-16.096a.767.767 0 0 1 -.6-.289.725.725 0 0 1 -.151-.617 8.977 8.977 0 0 1 2.5-4.522 1 1 0 1 0 -1.4-1.427 10.955 10.955 0 0 0 -3.053 5.527 2.725 2.725 0 0 0 .549 2.3 2.761 2.761 0 0 0 2.155 1.028h16.094a2.761 2.761 0 0 0 2.153-1.032 2.725 2.725 0 0 0 .553-2.296z" fill="#000000" data-original="#000000" class=""></path></g></g></svg>